<svg width="16" height="16" viewBox="0 0 16 16" fill="none" xmlns="http://www.w3.org/2000/svg">
<path fill-rule="evenodd" clip-rule="evenodd" d="M4.70184 0.0479998C3.85041 0.0868569 3.26869 0.221714 2.75898 0.420571C2.23326 0.624 1.78755 0.898286 1.34184 1.34286C0.898408 1.78743 0.624122 2.23429 0.420694 2.76C0.221836 3.26857 0.086979 3.85029 0.0481219 4.70171C0.00926472 5.55429 0.00012207 5.82743 0.00012207 8C0.00012207 10.1726 0.00926472 10.4457 0.0481219 11.2983C0.086979 12.1497 0.221836 12.7314 0.420694 13.2411C0.624122 13.7669 0.898408 14.2126 1.34298 14.6583C1.78755 15.1017 2.23441 15.376 2.76012 15.5806C3.26869 15.7783 3.85041 15.912 4.70184 15.952C5.55555 15.9909 5.82755 16 8.00012 16C10.1727 16 10.4458 15.9909 11.2984 15.952C12.1498 15.9131 12.7316 15.7783 13.2413 15.5806C13.767 15.3749 14.2127 15.1017 14.6584 14.6571C15.1018 14.2126 15.3761 13.7657 15.5807 13.24C15.7784 12.7314 15.9121 12.1497 15.9521 11.2983C15.991 10.4446 16.0001 10.1726 16.0001 8C16.0001 5.82743 15.991 5.55429 15.9521 4.70171C15.9133 3.85029 15.7784 3.26857 15.5807 2.75886C15.3796 2.22494 15.0645 1.74131 14.6573 1.34171C14.2127 0.898286 13.7658 0.624 13.2401 0.420571C12.7316 0.221714 12.1498 0.0868569 11.2984 0.0479998C10.4458 0.00914265 10.1727 0 8.00012 0C5.82755 0 5.55441 0.00914265 4.70184 0.0479998ZM3.89155 8C3.89155 9.08966 4.32442 10.1347 5.09492 10.9052C5.86543 11.6757 6.91046 12.1086 8.00012 12.1086C9.08978 12.1086 10.1348 11.6757 10.9053 10.9052C11.6758 10.1347 12.1087 9.08966 12.1087 8C12.1087 6.91034 11.6758 5.86531 10.9053 5.0948C10.1348 4.3243 9.08978 3.89143 8.00012 3.89143C6.91046 3.89143 5.86543 4.3243 5.09492 5.0948C4.32442 5.86531 3.89155 6.91034 3.89155 8ZM8.00012 10.6663C7.29298 10.6663 6.6148 10.3854 6.11477 9.88535C5.61475 9.38532 5.33384 8.70714 5.33384 8C5.33384 7.29286 5.61475 6.61468 6.11477 6.11465C6.6148 5.61463 7.29298 5.33371 8.00012 5.33371C8.70727 5.33371 9.38545 5.61463 9.88547 6.11465C10.3855 6.61468 10.6664 7.29286 10.6664 8C10.6664 8.70714 10.3855 9.38532 9.88547 9.88535C9.38545 10.3854 8.70727 10.6663 8.00012 10.6663ZM13.6001 3.44C13.6001 3.56607 13.5753 3.6909 13.527 3.80738C13.4788 3.92385 13.4081 4.02968 13.3189 4.11882C13.2298 4.20797 13.124 4.27868 13.0075 4.32692C12.891 4.37517 12.7662 4.4 12.6401 4.4C12.5141 4.4 12.3892 4.37517 12.2727 4.32692C12.1563 4.27868 12.0504 4.20797 11.9613 4.11882C11.8722 4.02968 11.8014 3.92385 11.7532 3.80738C11.705 3.6909 11.6801 3.56607 11.6801 3.44C11.6801 3.18539 11.7813 2.94121 11.9613 2.76118C12.1413 2.58114 12.3855 2.48 12.6401 2.48C12.8947 2.48 13.1389 2.58114 13.3189 2.76118C13.499 2.94121 13.6001 3.18539 13.6001 3.44Z" fill="white"/>
</svg>
